<?xml version="1.0" encoding="iso-8859-1"?>
<svg
    xmlns="http://www.w3.org/2000/svg" x="0px" y="0px" viewBox="0 0 172 172"
							style="width: 300px; max-width: 600px; height: auto; margin: auto; display: block;">
    <g fill="none" fill-rule="nonzero" stroke="none" stroke-width="1" stroke-linecap="butt"
								stroke-linejoin="miter" stroke-miterlimit="10" stroke-dasharray="" stroke-dashoffset="0"
								font-family="none" font-weight="none" font-size="none" text-anchor="none"
								style="mix-blend-mode: normal">
        <path d="M0,172v-172h172v172z" fill="none"></path>
        <g fill="#95a5a6">
            <path 
                d="M86,0c-23.70459,0 -43,19.29541 -43,43v22.81226c-11.57935,11.26441 -18.8125,26.99048 -18.8125,44.37524c0,34.07666 27.73584,61.8125 61.8125,61.8125c34.07666,0 61.8125,-27.73584 61.8125,-61.8125c0,-17.38477 -7.23315,-33.11084 -18.8125,-44.37524v-22.81226c0,-23.70459 -19.29541,-43 -43,-43zM86,5.375c1.82666,0 3.61133,0.17847 5.375,0.43042v10.86548c-1.74267,-0.35693 -3.53784,-0.5459 -5.375,-0.5459c-1.83716,0 -3.63232,0.18897 -5.375,0.5459v-10.86548c1.76367,-0.25195 3.54834,-0.43042 5.375,-0.43042zM75.25,6.96021v11.43237c-9.47974,4.15723 -16.125,13.62647 -16.125,24.60742v11.53735c-3.82129,1.84766 -7.42212,4.08374 -10.75,6.65576v-18.19311c0,-17.00684 11.34839,-31.39966 26.875,-36.03979zM96.75,6.96021c15.52661,4.64014 26.875,19.03296 26.875,36.03979v18.19311c-3.32788,-2.58252 -6.92871,-4.8081 -10.75,-6.66626v-11.52686c0,-10.99146 -6.64526,-20.4502 -16.125,-24.60742zM86,21.5c11.85229,0 21.5,9.64771 21.5,21.5v9.23828c-6.68726,-2.49853 -13.9519,-3.86328 -21.5,-3.86328c-7.5481,0 -14.81274,1.36475 -21.5,3.86328v-9.23828c0,-11.85229 9.64771,-21.5 21.5,-21.5zM86,53.75c7.60059,0 14.86523,1.50122 21.5,4.27271c1.85815,0.75586 3.63233,1.6062 5.375,2.55103c3.89478,2.1206 7.49561,4.68213 10.75,7.57959c1.93164,1.72168 3.70581,3.57983 5.375,5.54297c8.35645,9.82617 13.4375,22.5708 13.4375,36.49121c0,31.11621 -25.32129,56.4375 -56.4375,56.4375c-31.11621,0 -56.4375,-25.32129 -56.4375,-56.4375c0,-13.92041 5.08105,-26.66504 13.4375,-36.49121c1.66919,-1.96314 3.44336,-3.82129 5.375,-5.54297c3.2544,-2.89746 6.85522,-5.45898 10.75,-7.57959c1.74268,-0.94483 3.51685,-1.79517 5.375,-2.55103c6.63477,-2.77148 13.89941,-4.27271 21.5,-4.27271zM86,64.5c-25.19531,0 -45.6875,20.49219 -45.6875,45.6875c0,2.97095 0.28345,5.9314 0.85034,8.80786c0.25195,1.28076 1.37524,2.1731 2.63501,2.1731c0.16797,0 0.34643,-0.021 0.5144,-0.05249c1.45923,-0.28345 2.41455,-1.69018 2.1311,-3.14941c-0.50391,-2.54053 -0.75586,-5.15454 -0.75586,-7.77905c0,-22.22436 18.08814,-40.3125 40.3125,-40.3125c3.92627,0 7.78955,0.5669 11.51636,1.66919c1.42773,0.43042 2.91846,-0.38843 3.34888,-1.80566c0.41992,-1.42773 -0.39892,-2.92896 -1.81616,-3.34888c-4.22022,-1.25977 -8.6084,-1.88965 -13.04907,-1.88965zM109.20068,71.05078c-1.03931,-0.15747 -2.11011,0.29395 -2.7085,1.22827c-0.78735,1.25977 -0.39892,2.91846 0.85034,3.70581c1.53272,0.95532 3.00244,2.01563 4.38818,3.17041c0.50391,0.41992 1.11279,0.61939 1.72168,0.61939c0.76636,0 1.53271,-0.33594 2.06811,-0.96582c0.94483,-1.14429 0.78735,-2.84497 -0.34643,-3.78979c-1.57471,-1.30176 -3.2439,-2.50903 -4.97608,-3.59033c-0.31494,-0.19946 -0.65088,-0.31494 -0.99731,-0.37793zM121.35742,82.44116c-0.67187,-0.10498 -1.39624,0.04199 -2.00513,0.48291c-1.19678,0.86084 -1.46973,2.54053 -0.60889,3.7478c4.95508,6.87622 7.56909,15.01221 7.56909,23.51563c0,18.45557 -12.47168,34.51758 -30.32886,39.06323c-1.44873,0.36743 -2.30957,1.83716 -1.95264,3.27539c0.31494,1.21777 1.40674,2.01563 2.60352,2.01563c0.22046,0 0.45142,-0.02099 0.66138,-0.08398c20.25073,-5.15454 34.3916,-23.35815 34.3916,-44.27026c0,-9.63721 -2.96045,-18.85449 -8.5769,-26.65454c-0.43042,-0.59839 -1.0708,-0.97632 -1.75317,-1.0918zM86.22046,86c-1.20727,-0.0105 -2.42505,0.10498 -3.64282,0.35693c-6.26734,1.30176 -11.26441,6.4353 -12.41919,12.77612c-1.02881,5.59546 0.91333,11.20142 5.09155,14.94922v9.54272c0,5.9314 4.8186,10.75 10.75,10.75c5.9314,0 10.75,-4.8186 10.75,-10.75v-9.54272c3.43286,-3.06543 5.375,-7.34863 5.375,-11.95728c0,-4.87109 -2.1731,-9.43774 -5.95239,-12.51367c-2.83447,-2.30957 -6.33032,-3.55884 -9.95215,-3.61133zM86.03149,91.375c2.46704,0 4.79761,0.82935 6.75024,2.40405c2.51953,2.05762 3.96826,5.09155 3.96826,8.34595c0,3.35938 -1.57471,6.47729 -4.3147,8.54541c-0.67187,0.50391 -1.0603,1.30176 -1.0603,2.1521v10.80249c0,2.96045 -2.41455,5.375 -5.375,5.375c-2.96045,0 -5.375,-2.41455 -5.375,-5.375v-10.80249c0,-0.85034 -0.38843,-1.64819 -1.0603,-2.1521c-3.33838,-2.51953 -4.88159,-6.4668 -4.12573,-10.57153c0.76636,-4.20972 4.07324,-7.61108 8.23047,-8.47192c0.79785,-0.16797 1.5852,-0.25195 2.36206,-0.25195zM50.39063,129.021c-0.33594,0.04199 -0.68237,0.15747 -1.00781,0.34643l-4.65064,2.6875c-1.29126,0.73486 -1.73218,2.38306 -0.98682,3.66382c0.50391,0.86084 1.39624,1.34375 2.33057,1.34375c0.45142,0 0.92383,-0.11548 1.34375,-0.36743l4.65064,-2.6875c1.29126,-0.73486 1.73218,-2.38305 0.98682,-3.66382c-0.5564,-0.96582 -1.6272,-1.44873 -2.66651,-1.32275zM58.89404,139.02564c-0.68238,0.05249 -1.34375,0.37793 -1.82666,0.94482l-3.45386,4.11523c-0.95532,1.13379 -0.80835,2.83447 0.33594,3.7898c0.49341,0.41992 1.11279,0.62988 1.72168,0.62988c0.76636,0 1.53271,-0.32544 2.06811,-0.95532l3.44336,-4.12573c0.95532,-1.13379 0.81885,-2.83447 -0.32544,-3.7898c-0.56689,-0.47241 -1.28076,-0.67187 -1.96313,-0.60889zM70.30542,145.54492c-1.0393,0.05249 -2.00512,0.72436 -2.38305,1.76367l-1.83716,5.04956c-0.50391,1.39624 0.20996,2.93945 1.6062,3.44336c0.30444,0.11548 0.60889,0.16797 0.92383,0.16797c1.0918,0 2.12061,-0.67187 2.51953,-1.77417l1.83716,-5.04956c0.50391,-1.39624 -0.20996,-2.92896 -1.6062,-3.43286c-0.34644,-0.13647 -0.70337,-0.18896 -1.0603,-0.16797zM83.3125,147.8125c-1.48022,0 -2.6875,1.20728 -2.6875,2.6875v5.375c0,1.48022 1.20728,2.6875 2.6875,2.6875c1.48022,0 2.6875,-1.20728 2.6875,-2.6875v-5.375c0,-1.48022 -1.20728,-2.6875 -2.6875,-2.6875z"></path>
        </g>
    </g>
</svg>