<?xml version="1.0" encoding="iso-8859-1"?>
<svg
    xmlns="http://www.w3.org/2000/svg" x="0px" y="0px" viewBox="0 0 172 172"
							style="width: 300px; max-width: 600px; height: auto; margin: auto; display: block;">
    <g fill="none" fill-rule="nonzero" stroke="none" stroke-width="1" stroke-linecap="butt"
								stroke-linejoin="miter" stroke-miterlimit="10" stroke-dasharray="" stroke-dashoffset="0"
								font-family="none" font-weight="none" font-size="none" text-anchor="none"
								style="mix-blend-mode: normal">
        <path d="M0,172v-172h172v172z" fill="none"></path>
        <g fill="#95a5a6">
            <path
				d="M34.9375,16.125c-10.35169,0 -18.8125,8.46081 -18.8125,18.8125v102.125c0,10.35169 8.46081,18.8125 18.8125,18.8125h102.125c10.35169,0 18.8125,-8.46081 18.8125,-18.8125v-102.125c0,-10.35169 -8.46081,-18.8125 -18.8125,-18.8125zM34.9375,21.5h102.125c7.43956,0 13.4375,5.99794 13.4375,13.4375v102.125c0,7.43956 -5.99794,13.4375 -13.4375,13.4375h-102.125c-7.43956,0 -13.4375,-5.99794 -13.4375,-13.4375v-102.125c0,-7.43956 5.99794,-13.4375 13.4375,-13.4375zM43,45.6875c-4.42086,0 -8.0625,3.64164 -8.0625,8.0625v48.375c0,4.42086 3.64164,8.0625 8.0625,8.0625h86c4.42086,0 8.0625,-3.64164 8.0625,-8.0625v-48.375c0,-4.42086 -3.64164,-8.0625 -8.0625,-8.0625zM44.11279,51.0625h83.77442l-24.65991,24.65991c-0.23894,0.1712 -0.44818,0.38044 -0.61938,0.61939l-9.00733,9.00732c-4.22213,4.22213 -10.97904,4.22213 -15.20117,0l-8.99683,-8.99683c-0.1712,-0.23894 -0.38044,-0.44818 -0.61939,-0.61938zM40.3125,54.86279l23.07471,23.07471l-23.07471,23.07471zM131.6875,54.86279v46.14942l-23.07471,-23.07471zM67.1875,81.73779l7.41162,7.41162c6.27525,6.27525 16.52651,6.27525 22.80176,0l7.41162,-7.41162l23.07471,23.07471h-83.77442zM32.25,129c-1.4835,0 -2.6875,1.204 -2.6875,2.6875v5.375c0,1.4835 1.204,2.6875 2.6875,2.6875c1.4835,0 2.6875,-1.204 2.6875,-2.6875v-5.375c0,-1.4835 -1.204,-2.6875 -2.6875,-2.6875zM45.6875,129c-1.4835,0 -2.6875,1.204 -2.6875,2.6875v5.375c0,1.4835 1.204,2.6875 2.6875,2.6875c1.4835,0 2.6875,-1.204 2.6875,-2.6875v-5.375c0,-1.4835 -1.204,-2.6875 -2.6875,-2.6875zM59.125,129c-1.4835,0 -2.6875,1.204 -2.6875,2.6875v5.375c0,1.4835 1.204,2.6875 2.6875,2.6875c1.4835,0 2.6875,-1.204 2.6875,-2.6875v-5.375c0,-1.4835 -1.204,-2.6875 -2.6875,-2.6875zM72.5625,129c-1.4835,0 -2.6875,1.204 -2.6875,2.6875v5.375c0,1.4835 1.204,2.6875 2.6875,2.6875c1.4835,0 2.6875,-1.204 2.6875,-2.6875v-5.375c0,-1.4835 -1.204,-2.6875 -2.6875,-2.6875zM86,129c-1.4835,0 -2.6875,1.204 -2.6875,2.6875v5.375c0,1.4835 1.204,2.6875 2.6875,2.6875c1.4835,0 2.6875,-1.204 2.6875,-2.6875v-5.375c0,-1.4835 -1.204,-2.6875 -2.6875,-2.6875zM99.4375,129c-1.4835,0 -2.6875,1.204 -2.6875,2.6875v5.375c0,1.4835 1.204,2.6875 2.6875,2.6875c1.4835,0 2.6875,-1.204 2.6875,-2.6875v-5.375c0,-1.4835 -1.204,-2.6875 -2.6875,-2.6875zM112.875,129c-1.4835,0 -2.6875,1.204 -2.6875,2.6875v5.375c0,1.4835 1.204,2.6875 2.6875,2.6875c1.4835,0 2.6875,-1.204 2.6875,-2.6875v-5.375c0,-1.4835 -1.204,-2.6875 -2.6875,-2.6875zM126.3125,129c-1.4835,0 -2.6875,1.204 -2.6875,2.6875v5.375c0,1.4835 1.204,2.6875 2.6875,2.6875c1.4835,0 2.6875,-1.204 2.6875,-2.6875v-5.375c0,-1.4835 -1.204,-2.6875 -2.6875,-2.6875zM139.75,129c-1.4835,0 -2.6875,1.204 -2.6875,2.6875v5.375c0,1.4835 1.204,2.6875 2.6875,2.6875c1.4835,0 2.6875,-1.204 2.6875,-2.6875v-5.375c0,-1.4835 -1.204,-2.6875 -2.6875,-2.6875z"></path>
        </g>
    </g>
</svg>