<svg width="799.9999999999999" height="600" xmlns="http://www.w3.org/2000/svg">
 <!-- Created with Method Draw - http://github.com/duopixel/Method-Draw/ -->

 <g>
  <title>background</title>
  <rect fill="#fff" id="canvas_background" height="602" width="802" y="-1" x="-1"/>
  <g display="none" overflow="visible" y="0" x="0" height="100%" width="100%" id="canvasGrid">
   <rect fill="url(#gridpattern)" stroke-width="0" y="0" x="0" height="100%" width="100%"/>
  </g>
 </g>
 <g>
  <title>Layer 1</title>
  <g stroke="null" id="svg_38">
   <path stroke="null" id="svg_5" fill="#3f3d56" d="m492.3757,152.98921l-2.75487,0l0,-75.46888a43.67934,43.67934 0 0 0 -43.6795,-43.67938l-159.89092,0a43.67934,43.67934 0 0 0 -43.67944,43.67938l0,414.02817a43.67934,43.67934 0 0 0 43.67947,43.67938l159.89091,0a43.67934,43.67934 0 0 0 43.6795,-43.67938l0,-284.83926l2.75485,0l0,-53.72003z"/>
   <rect stroke="null" transform="matrix(0.7040879496967891,0,0,0.7040879496967891,-3375.46127282148,-2437.8648285090294) " id="svg_6" fill="#3f3d56" height="2" width="718" y="4193.37826" x="4974.61109"/>
   <path fill="#bcbcbc" stroke="null" id="svg_7" opacity="0.2" d="m480.32463,77.82719l0,413.41932a32.59129,32.59129 0 0 1 -32.62039,32.62039l-160.65879,0a32.59741,32.59741 0 0 1 -32.62039,-32.62039l0,-413.41932a32.59741,32.59741 0 0 1 32.62039,-32.62039l19.48915,0a15.49557,15.49557 0 0 0 14.34931,21.34795l91.60184,0a15.49557,15.49557 0 0 0 14.34931,-21.34795l20.86917,0a32.59116,32.59116 0 0 1 32.62039,32.62039z"/>
   <path stroke="null" id="svg_8" fill="#3f3d56" d="m177.31681,515.9758l-0.75566,-0.28328c-0.16605,-0.06257 -16.69287,-6.39453 -24.43474,-20.75203c-7.74222,-14.35817 -3.95121,-31.64546 -3.91203,-31.81804l0.17843,-0.78729l0.75532,0.28329c0.16605,0.06257 16.69252,6.39453 24.43474,20.75203c7.74221,14.35817 3.95121,31.64545 3.91202,31.81804l-0.17808,0.78728zm-23.95068,-21.70361c6.54547,12.13933 19.60548,18.36198 22.91449,19.78253c0.62914,-3.54657 2.60217,-17.88823 -3.93746,-30.01587c-6.53894,-12.12627 -19.6041,-18.35854 -22.91449,-19.78253c-0.62948,3.5486 -2.60182,17.88889 3.93746,30.01587z"/>
   <path stroke="null" id="svg_9" fill="#6c63ff" d="m158.043,489.90411c13.91318,8.37063 19.27159,24.997 19.27159,24.997s-17.19931,3.0549 -31.11249,-5.31572s-19.27159,-24.997 -19.27159,-24.997s17.19932,-3.0549 31.11249,5.31572z"/>
   <path stroke="null" id="svg_10" fill="#3f3d56" d="m294.95938,45.20679l0,478.66011l-7.91395,0a32.31564,32.31564 0 0 1 -6.16781,-0.58439l0,-477.49132a32.31167,32.31167 0 0 1 6.16781,-0.58439l7.91395,-0.00001z"/>
   <rect stroke="null" transform="matrix(0.7040879496967891,0,0,0.7040879496967891,-3375.46127282148,-2437.8648285090294) " id="svg_11" fill="#3f3d56" height="649.51001" width="20" y="3556.96979" x="5301.01446"/>
   <path stroke="null" id="svg_12" fill="#3f3d56" d="m459.01188,47.22047l0,474.63273a32.51877,32.51877 0 0 1 -11.30765,2.01369l-2.77411,0l0,-478.66011l2.77411,0a32.51971,32.51971 0 0 1 11.30765,2.01369z"/>
   <rect stroke="null" transform="matrix(0.7040879496967891,0,0,0.7040879496967891,-3375.46127282148,-2437.8648285090294) " id="svg_13" fill="#3f3d56" height="20" width="320.84003" y="3639.84979" x="5155.44445"/>
   <rect stroke="null" transform="matrix(0.7040879496967891,0,0,0.7040879496967891,-3375.46127282148,-2437.8648285090294) " id="svg_14" fill="#3f3d56" height="20" width="320.84003" y="3866.84979" x="5155.44445"/>
   <rect stroke="null" transform="matrix(0.7040879496967891,0,0,0.7040879496967891,-3375.46127282148,-2437.8648285090294) " id="svg_15" fill="#3f3d56" height="20" width="161" y="3978.84979" x="5305.01446"/>
   <rect stroke="null" transform="matrix(0.7040879496967891,0,0,0.7040879496967891,-3375.46127282148,-2437.8648285090294) " id="svg_16" fill="#3f3d56" height="20" width="175.27002" y="3724.84979" x="5301.01446"/>
   <polygon stroke="null" id="svg_17" fill="#3f3d56" points="367.09353931971236,138.0480219196179 365.4600420532206,138.99162192118092 356.91956695400404,143.9201758472118 294.9595791014053,179.6947688305372 280.87784565151924,187.8271994970637 254.4253327656752,203.09871433147782 254.4253327656752,186.83429284366866 280.87784565151924,171.56282199377893 294.9595791014053,163.43729689758038 337.29657515344843,138.99162192118092 356.91956695400404,127.66270391425496 360.0526725947693,125.85313659666281 367.09353931971236,138.0480219196179 "/>
   <rect stroke="null" transform="matrix(0.7040879496967891,0,0,0.7040879496967891,-3375.46127282148,-2437.8648285090294) " id="svg_18" fill="#3f3d56" height="20" width="320.84003" y="4085.84979" x="5155.44445"/>
   <path stroke="null" id="svg_19" fill="#6c63ff" d="m529.42067,185.46112c0,44.71855 -80.97011,144.33803 -80.97011,144.33803s-80.97011,-99.61947 -80.97011,-144.33803a80.97011,80.97011 0 0 1 161.94023,0z"/>
   <circle stroke="null" transform="matrix(0.7040879496967891,0,0,0.7040879496967891,-3375.46127282148,-2437.8648285090294) " id="svg_20" opacity="0.2" r="68" cy="3720.84979" cx="5431.01446"/>
   <circle stroke="null" transform="matrix(0.7040879496967891,0,0,0.7040879496967891,-3375.46127282148,-2437.8648285090294) " id="svg_21" fill="#6c63ff" r="25.33333" cy="3722.3596" cx="5428.77916"/>
   <path stroke="null" id="svg_22" fill="#6c63ff" d="m474.72292,234.74727a26.75534,26.75534 0 1 0 -52.54471,0l52.54471,0z"/>
   <path stroke="null" id="svg_23" fill="#2f2e41" d="m532.8285,120.29331s-12.7214,-4.54335 -20.89944,13.63008s-20.89944,38.16421 -20.89944,38.16421l7.26938,1.81734s1.81734,-12.7214 6.36073,-14.53875l-1.81735,16.35609s54.5203,19.08211 79.05444,-1.81734l-0.90867,-6.36073s3.63469,0.90867 3.63469,6.36073l2.72602,-2.72602s-2.72602,-5.45203 -10.90406,-12.7214c-5.36771,-4.7713 -7.21229,-13.84864 -7.84617,-19.52394a23.62638,23.62638 0 0 0 -5.43942,-12.86619c-5.43478,-6.29853 -15.33762,-12.99297 -30.3307,-5.77408z"/>
   <path stroke="null" id="svg_24" fill="#fbbebe" d="m610.03874,223.12982s23.93899,20.41855 27.45943,32.38805s-13.37767,13.37767 -13.37767,13.37767l-36.61257,3.52044s-0.70409,16.89811 -7.04088,19.01037s-1.28646,-27.94349 -1.28646,-27.94349l35.78677,-10.07726l-16.19402,-16.89811l11.26541,-13.37767z"/>
   <path stroke="null" id="svg_25" fill="#fbbebe" d="m498.08876,244.25246l-2.81635,37.31666l-15.48993,63.36792s-14.08176,28.86761 -2.11226,29.57169s11.26541,-27.45943 11.26541,-27.45943l22.53081,-59.84748l2.11226,-40.8371l-15.48993,-2.11226z"/>
   <polygon stroke="null" id="svg_26" fill="#fbbebe" points="510.7625664723437,514.6224950740434 510.7625664723437,542.0817697384628 527.6606290183972,537.8574960168335 522.7323389995126,512.51027024418 510.7625664723437,514.6224950740434 "/>
   <polygon stroke="null" id="svg_27" fill="#fbbebe" points="600.886065209239,514.6224950740434 600.886065209239,542.0817697384628 617.7840397862437,537.8574960168335 612.8554858602129,512.51027024418 600.886065209239,514.6224950740434 "/>
   <circle stroke="null" transform="matrix(0.7040879496967891,0,0,0.7040879496967891,-3375.46127282148,-2437.8648285090294) " id="svg_28" fill="#fbbebe" r="33" cy="3683.34979" cx="5557.51446"/>
   <path stroke="null" id="svg_29" fill="#fbbebe" d="m526.95636,166.80279s8.44906,30.27578 -4.92862,38.02075s33.79622,13.37767 46.4698,-9.85723c0,0 -22.53081,-7.74497 -16.19402,-28.16352l-25.34717,0z"/>
   <path stroke="null" id="svg_30" fill="#575a89" d="m510.76234,208.34397l-4.22453,-1.40818s-8.44906,3.52044 -8.44906,9.85723s-1.40818,31.68396 -1.40818,31.68396l19.01037,2.11226l-4.92862,-42.24528z"/>
   <path stroke="null" id="svg_31" fill="#2f2e41" d="m513.57869,283.64535s-23.2349,29.60773 -23.2349,65.51621s5.6327,166.16476 5.6327,166.16476s21.12264,9.85723 33.79622,-2.11226l11.26541,-147.85847l44.35754,152.78709s21.12264,4.22453 30.97987,-2.81635l-19.01037,-98.57231s-0.70409,-116.8786 -21.82673,-125.32766s-61.95974,-7.781 -61.95974,-7.781z"/>
   <path stroke="null" id="svg_32" fill="#2f2e41" d="m529.06863,533.63261s-18.30629,-9.85723 -19.71446,3.52044s-2.11226,21.82673 -2.11226,21.82673s-2.11226,16.19402 17.6022,12.67358s12.67358,-13.37767 12.67358,-13.37767s-7.04088,-11.26541 -7.04088,-14.08176s-1.40818,-10.56132 -1.40818,-10.56132z"/>
   <path stroke="null" id="svg_33" fill="#2f2e41" d="m599.08426,533.31166s16.66021,-12.43875 20.01771,0.58708s5.29474,21.27988 5.29474,21.27988s4.46755,15.70824 -15.55016,15.12117s-14.50077,-11.37144 -14.50077,-11.37144s5.31015,-12.17726 4.89655,-14.96308s-0.15807,-10.65361 -0.15807,-10.65361z"/>
   <path stroke="null" id="svg_34" fill="#575a89" d="m578.35478,198.48674s9.15314,-4.92862 18.30629,5.6327l18.30629,21.12264l-14.08176,15.48993l-26.75534,-16.19402l4.22453,-26.05125z"/>
   <path stroke="null" id="svg_35" fill="#2f2e41" d="m512.4104,155.6847c8.22533,-5.9528 14.88357,-12.80918 19.28799,-20.9652c0,0 15.09494,16.77216 24.31965,17.61077s0.8386,-20.1266 0.8386,-20.1266l-16.77216,-4.19304l-15.93356,1.67721l-12.57913,8.38608l0.83861,17.61077z"/>
   <path stroke="null" id="svg_36" fill="#575a89" d="m564.97711,193.55813s-9.85324,15.57902 -39.4269,8.14158l-16.78194,4.6218l-2.23048,0.61429s2.11226,42.24528 7.74497,49.99024s4.22453,11.9695 2.81635,12.67358s-4.92862,-0.70409 -2.81635,2.81635s4.92862,1.40818 2.11226,3.52044s-4.22453,9.85723 -4.22453,9.85723l66.18427,8.44906s-2.11226,-27.45943 3.52044,-41.54119s7.04088,-19.71446 7.04088,-19.71446l-4.22453,-35.2044l-19.71444,-4.22453z"/>
   <circle stroke="null" transform="matrix(0.7040879496967891,0,0,0.7040879496967891,-3375.46127282148,-2437.8648285090294) " id="svg_37" fill="#6c63ff" r="31" cy="3982.84979" cx="5441.01446"/>
  </g>
 </g>
</svg>