<?xml version="1.0" encoding="UTF-8" standalone="no"?>
<svg
   xmlns:dc="http://purl.org/dc/elements/1.1/"
   xmlns:cc="http://creativecommons.org/ns#"
   xmlns:rdf="http://www.w3.org/1999/02/22-rdf-syntax-ns#"
   xmlns:svg="http://www.w3.org/2000/svg"
   xmlns="http://www.w3.org/2000/svg"
   xmlns:sodipodi="http://sodipodi.sourceforge.net/DTD/sodipodi-0.dtd"
   xmlns:inkscape="http://www.inkscape.org/namespaces/inkscape"
   width="95mm"
   height="41mm"
   viewBox="0 0 95 41"
   version="1.1"
   id="svg8"
   inkscape:export-filename="/Users/d074114/identify-logo-v2.png"
   inkscape:export-xdpi="300"
   inkscape:export-ydpi="300"
   inkscape:version="1.0.1 (c497b03c, 2020-09-10)"
   sodipodi:docname="identify-white.svg">
  <defs
     id="defs2" />
  <sodipodi:namedview
     id="base"
     pagecolor="#283371"
     bordercolor="#666666"
     borderopacity="1.0"
     inkscape:pageopacity="0"
     inkscape:pageshadow="2"
     inkscape:zoom="1.4593353"
     inkscape:cx="116.92674"
     inkscape:cy="257.82354"
     inkscape:document-units="mm"
     inkscape:current-layer="g1771"
     inkscape:document-rotation="0"
     showgrid="false"
     inkscape:window-width="1920"
     inkscape:window-height="1099"
     inkscape:window-x="2560"
     inkscape:window-y="1022"
     inkscape:window-maximized="0" />
  <metadata
     id="metadata5">
    <rdf:RDF>
      <cc:Work
         rdf:about="">
        <dc:format>image/svg+xml</dc:format>
        <dc:type
           rdf:resource="http://purl.org/dc/dcmitype/StillImage" />
        <dc:title></dc:title>
      </cc:Work>
    </rdf:RDF>
  </metadata>
  <g
     inkscape:groupmode="layer"
     id="layer2"
     inkscape:label="Fingerprint" />
  <g
     inkscape:label="Text Margin"
     inkscape:groupmode="layer"
     id="g798">
    <g
       id="g1771"
       transform="translate(1.7164527,0.08596836)">
      <g
         id="g722"
         transform="matrix(0.08661055,0,0,0.08661055,-3.4345343,0.36368932)"
         style="fill:#30e3ca;fill-opacity:1">
        <g
           id="g649"
           style="fill:#30e3ca;fill-opacity:1">
          <path
             d="M 259.476,280.364 V 247.5 c 0,-12.958 -10.542,-23.5 -23.5,-23.5 -12.958,0 -23.5,10.542 -23.5,23.5 v 29.672 c 0,35.757 -13.173,70.087 -37.094,96.665 l -32.981,36.646 c -2.771,3.079 -2.521,7.821 0.558,10.593 3.078,2.771 7.82,2.521 10.592,-0.558 l 32.981,-36.646 c 26.403,-29.338 40.944,-67.231 40.944,-106.7 V 247.5 c 0,-4.687 3.813,-8.5 8.5,-8.5 4.687,0 8.5,3.813 8.5,8.5 v 32.864 c 0,44.003 -16.301,86.167 -45.901,118.727 l -32.149,35.364 c -2.786,3.064 -2.56,7.809 0.505,10.595 1.437,1.307 3.242,1.95 5.042,1.95 2.04,0 4.072,-0.827 5.552,-2.455 l 32.148,-35.364 c 32.116,-35.327 49.803,-81.075 49.803,-128.817 z"
             id="path613"
             style="fill:#30e3ca;fill-opacity:1" />
          <path
             d="m 291.476,247.5 c 0,-30.603 -24.897,-55.5 -55.5,-55.5 -30.603,0 -55.5,24.897 -55.5,55.5 v 29.672 c 0,27.839 -10.256,54.566 -28.879,75.258 l -23.447,26.053 c -2.771,3.079 -2.521,7.821 0.558,10.593 3.079,2.771 7.82,2.519 10.592,-0.558 l 23.447,-26.053 c 21.106,-23.451 32.73,-53.742 32.73,-85.293 V 247.5 c 0,-22.332 18.168,-40.5 40.5,-40.5 22.332,0 40.5,18.168 40.5,40.5 v 32.864 c 0,51.979 -19.256,101.789 -54.223,140.252 l -27.125,29.839 c -2.787,3.064 -2.561,7.809 0.504,10.595 1.437,1.307 3.242,1.95 5.042,1.95 2.04,0 4.072,-0.827 5.552,-2.455 l 27.126,-29.839 c 37.481,-41.23 58.123,-94.622 58.123,-150.342 z"
             id="path615"
             style="fill:#30e3ca;fill-opacity:1" />
          <path
             d="m 323.476,247.5 c 0,-48.248 -39.252,-87.5 -87.5,-87.5 -48.248,0 -87.5,39.252 -87.5,87.5 v 29.672 c 0,19.92 -7.339,39.045 -20.665,53.851 l -21.112,23.458 c -2.771,3.079 -2.521,7.821 0.558,10.593 3.078,2.771 7.821,2.519 10.592,-0.558 l 21.112,-23.458 c 15.809,-17.565 24.515,-40.254 24.515,-63.886 V 247.5 c 0,-39.977 32.523,-72.5 72.5,-72.5 39.977,0 72.5,32.523 72.5,72.5 v 32.864 c 0,59.958 -22.212,117.412 -62.545,161.777 l -7.507,8.258 c -2.786,3.065 -2.56,7.809 0.505,10.595 1.437,1.306 3.243,1.95 5.042,1.95 2.04,0 4.072,-0.827 5.552,-2.455 l 7.506,-8.258 c 42.848,-47.133 66.446,-108.169 66.446,-171.867 V 247.5 Z"
             id="path617"
             style="fill:#30e3ca;fill-opacity:1" />
          <path
             d="m 116.476,247.5 c 0,4.143 3.358,7.5 7.5,7.5 4.142,0 7.5,-3.357 7.5,-7.5 0,-25.255 9.169,-49.651 25.819,-68.695 16.495,-18.867 39.134,-31.205 63.746,-34.741 4.1,-0.589 6.946,-4.391 6.357,-8.49 -0.589,-4.1 -4.394,-6.942 -8.49,-6.357 -28.16,4.046 -54.052,18.15 -72.906,39.716 -19.04,21.777 -29.526,49.68 -29.526,78.567 z"
             id="path619"
             style="fill:#30e3ca;fill-opacity:1" />
          <path
             d="m 131.476,277.172 c 0,-4.143 -3.358,-7.5 -7.5,-7.5 -4.142,0 -7.5,3.357 -7.5,7.5 0,12.002 -4.421,23.523 -12.449,32.443 l -18.779,20.867 c -2.771,3.078 -2.521,7.82 0.558,10.592 1.434,1.29 3.227,1.925 5.015,1.925 2.052,0 4.097,-0.838 5.577,-2.483 l 18.779,-20.866 c 10.51,-11.679 16.299,-26.764 16.299,-42.478 z"
             id="path621"
             style="fill:#30e3ca;fill-opacity:1" />
          <path
             d="m 340.755,344.123 c -4.009,-1.044 -8.105,1.351 -9.155,5.357 -2.769,10.579 -6.213,21.096 -10.24,31.258 -1.526,3.851 0.359,8.21 4.21,9.735 0.907,0.359 1.841,0.529 2.761,0.529 2.985,0 5.808,-1.795 6.975,-4.739 4.249,-10.725 7.884,-21.822 10.806,-32.986 1.048,-4.006 -1.351,-8.105 -5.357,-9.154 z"
             id="path623"
             style="fill:#30e3ca;fill-opacity:1" />
          <path
             d="m 315.791,158.632 c -3.081,-2.771 -7.823,-2.517 -10.592,0.563 -2.769,3.08 -2.517,7.822 0.563,10.591 22.061,19.832 34.713,48.157 34.713,77.714 v 32.864 c 0,12.473 -0.86,25.042 -2.557,37.359 -0.565,4.104 2.303,7.888 6.406,8.453 0.347,0.048 0.692,0.071 1.033,0.071 3.688,0 6.903,-2.722 7.42,-6.478 1.79,-12.993 2.698,-26.251 2.698,-39.406 V 247.5 c 10e-4,-33.805 -14.464,-66.196 -39.684,-88.868 z"
             id="path625"
             style="fill:#30e3ca;fill-opacity:1" />
          <path
             d="m 280.729,153.076 c 1.041,0.496 2.138,0.73 3.219,0.73 2.803,0 5.492,-1.579 6.777,-4.278 1.781,-3.739 0.192,-8.215 -3.547,-9.995 -10.806,-5.145 -22.291,-8.616 -34.136,-10.317 -4.106,-0.585 -7.901,2.258 -8.49,6.357 -0.589,4.099 2.257,7.901 6.357,8.49 10.348,1.487 20.38,4.519 29.82,9.013 z"
             id="path627"
             style="fill:#30e3ca;fill-opacity:1" />
          <path
             d="m 235.976,96 c -2.806,0 -5.644,0.078 -8.437,0.232 -4.136,0.228 -7.304,3.766 -7.076,7.901 0.229,4.136 3.763,7.321 7.902,7.075 2.519,-0.139 5.079,-0.209 7.61,-0.209 75.266,0 136.5,61.233 136.5,136.5 v 32.864 c 0,4.143 3.358,7.5 7.5,7.5 4.142,0 7.5,-3.357 7.5,-7.5 V 247.5 C 387.476,163.963 319.513,96 235.976,96 Z"
             id="path629"
             style="fill:#30e3ca;fill-opacity:1" />
          <path
             d="m 153.972,136.693 c 1.477,0 2.97,-0.436 4.275,-1.343 12.478,-8.677 26.182,-15.155 40.733,-19.258 3.987,-1.124 6.308,-5.268 5.184,-9.254 -1.124,-3.986 -5.269,-6.304 -9.254,-5.184 -16.16,4.556 -31.376,11.749 -45.226,21.379 -3.401,2.365 -4.241,7.039 -1.876,10.439 1.457,2.098 3.791,3.221 6.164,3.221 z"
             id="path631"
             style="fill:#30e3ca;fill-opacity:1" />
          <path
             d="M 99.476,277.172 V 247.5 c 0,-34.89 13.213,-68.118 37.205,-93.565 2.841,-3.014 2.702,-7.76 -0.312,-10.602 -3.014,-2.842 -7.761,-2.701 -10.602,0.312 C 99.14,171.886 84.476,208.77 84.476,247.5 v 29.672 c 0,4.083 -1.504,8.002 -4.234,11.035 l -9.248,10.275 c -2.771,3.079 -2.521,7.821 0.558,10.592 1.433,1.291 3.227,1.926 5.015,1.926 2.052,0 4.096,-0.837 5.577,-2.482 l 9.248,-10.275 c 5.213,-5.794 8.084,-13.277 8.084,-21.071 z"
             id="path633"
             style="fill:#30e3ca;fill-opacity:1" />
          <path
             d="m 409.951,189.104 c -8.226,-24.446 -21.299,-46.531 -38.856,-65.642 -2.803,-3.05 -7.547,-3.252 -10.597,-0.449 -3.05,2.803 -3.251,7.547 -0.449,10.598 16.127,17.554 28.134,37.834 35.686,60.276 1.054,3.133 3.976,5.11 7.107,5.11 0.793,0 1.6,-0.127 2.393,-0.394 3.925,-1.321 6.037,-5.574 4.716,-9.499 z"
             id="path635"
             style="fill:#30e3ca;fill-opacity:1" />
          <path
             d="m 295.247,73.822 c -3.917,-1.341 -8.183,0.748 -9.524,4.668 -1.341,3.919 0.749,8.183 4.668,9.523 16.538,5.659 32.065,13.857 46.15,24.369 1.347,1.005 2.92,1.489 4.48,1.489 2.286,0 4.544,-1.041 6.017,-3.015 2.478,-3.319 1.794,-8.019 -1.525,-10.496 C 330.176,88.916 313.264,79.986 295.247,73.822 Z"
             id="path637"
             style="fill:#30e3ca;fill-opacity:1" />
          <path
             d="M 119.442,125.908 C 150.991,95.659 192.377,79 235.976,79 c 8.096,0 16.237,0.583 24.196,1.731 4.103,0.598 7.903,-2.252 8.495,-6.352 0.592,-4.1 -2.251,-7.902 -6.351,-8.494 -8.668,-1.25 -17.53,-1.885 -26.34,-1.885 -47.487,0 -92.56,18.141 -126.915,51.081 -34.248,32.838 -54.277,76.905 -56.397,124.084 -0.186,4.138 3.018,7.644 7.155,7.829 0.115,0.006 0.229,0.008 0.343,0.008 3.987,0 7.306,-3.14 7.487,-7.163 1.945,-43.312 20.339,-83.773 51.793,-113.931 z"
             id="path639"
             style="fill:#30e3ca;fill-opacity:1" />
          <path
             d="m 235.976,32 c -16.772,0 -33.485,1.944 -49.674,5.778 -4.031,0.954 -6.524,4.996 -5.57,9.026 0.955,4.03 4.997,6.524 9.027,5.569 C 204.817,48.809 220.366,47 235.976,47 c 54.996,0 106.332,21.911 144.55,61.695 1.473,1.533 3.439,2.305 5.41,2.305 1.869,0 3.741,-0.694 5.195,-2.091 2.987,-2.87 3.083,-7.618 0.213,-10.604 C 371.431,77.576 348.04,61.269 321.822,49.84 294.666,38.002 265.783,32 235.976,32 Z"
             id="path641"
             style="fill:#30e3ca;fill-opacity:1" />
          <path
             d="m 67.507,125.404 c 1.372,1.074 3.001,1.595 4.619,1.595 2.227,0 4.431,-0.987 5.91,-2.876 21.375,-27.302 49.515,-48.717 81.377,-61.932 3.826,-1.587 5.642,-5.975 4.055,-9.801 -1.587,-3.826 -5.977,-5.644 -9.801,-4.055 -34.241,14.201 -64.478,37.21 -87.441,66.539 -2.554,3.263 -1.98,7.977 1.281,10.53 z"
             id="path643"
             style="fill:#30e3ca;fill-opacity:1" />
          <path
             d="m 131.983,38.725 c 1.094,0 2.205,-0.24 3.255,-0.748 C 166.816,22.73 200.709,15 235.976,15 c 18.378,0 36.682,2.162 54.401,6.426 4.025,0.966 8.077,-1.51 9.046,-5.537 0.969,-4.027 -1.51,-8.078 -5.538,-9.047 C 275.019,2.302 255.535,0 235.976,0 198.432,0 162.345,8.232 128.717,24.469 c -3.73,1.801 -5.294,6.285 -3.493,10.015 1.293,2.679 3.971,4.241 6.759,4.241 z"
             id="path645"
             style="fill:#30e3ca;fill-opacity:1" />
          <path
             d="m 321.724,31.383 c 7.732,3.079 15.385,6.619 22.746,10.52 1.119,0.594 2.321,0.875 3.505,0.875 2.688,0 5.287,-1.449 6.633,-3.99 1.939,-3.66 0.545,-8.199 -3.115,-10.139 -7.837,-4.153 -15.986,-7.922 -24.22,-11.201 -3.849,-1.533 -8.21,0.345 -9.743,4.192 -1.532,3.848 0.346,8.211 4.194,9.743 z"
             id="path647"
             style="fill:#30e3ca;fill-opacity:1" />
        </g>
        <g
           id="g651"
           style="fill:#30e3ca;fill-opacity:1" />
        <g
           id="g653"
           style="fill:#30e3ca;fill-opacity:1" />
        <g
           id="g655"
           style="fill:#30e3ca;fill-opacity:1" />
        <g
           id="g657"
           style="fill:#30e3ca;fill-opacity:1" />
        <g
           id="g659"
           style="fill:#30e3ca;fill-opacity:1" />
        <g
           id="g661"
           style="fill:#30e3ca;fill-opacity:1" />
        <g
           id="g663"
           style="fill:#30e3ca;fill-opacity:1" />
        <g
           id="g665"
           style="fill:#30e3ca;fill-opacity:1" />
        <g
           id="g667"
           style="fill:#30e3ca;fill-opacity:1" />
        <g
           id="g669"
           style="fill:#30e3ca;fill-opacity:1" />
        <g
           id="g671"
           style="fill:#30e3ca;fill-opacity:1" />
        <g
           id="g673"
           style="fill:#30e3ca;fill-opacity:1" />
        <g
           id="g675"
           style="fill:#30e3ca;fill-opacity:1" />
        <g
           id="g677"
           style="fill:#30e3ca;fill-opacity:1" />
        <g
           id="g679"
           style="fill:#30e3ca;fill-opacity:1" />
      </g>
      <g
         aria-label="Identify"
         id="g796"
         style="font-style:normal;font-weight:normal;font-size:10.58329999999999949px;line-height:1.25;font-family:sans-serif;fill:#ffffff;fill-opacity:1;stroke:none;stroke-width:0.264583"
         transform="matrix(2.2712131,0,0,2.2712131,-63.022378,-245.70098)">
        <path
           d="m 30.807003,112.50794 v 7.55654 h 1.661578 v -7.55647 z"
           style="font-style:normal;font-variant:normal;font-weight:bold;font-stretch:normal;font-family:'Helvetica Neue';-inkscape-font-specification:'Helvetica Neue Bold';stroke-width:0.264583;fill:#ffffff;fill-opacity:1"
           id="path780"
           sodipodi:nodetypes="ccccc" />
        <path
           d="m 37.653571,117.31283 c 0,0.22577 -0.02117,0.44449 -0.0635,0.65616 -0.04233,0.21167 -0.112889,0.40217 -0.211666,0.5715 -0.09878,0.16227 -0.232832,0.2928 -0.402165,0.39158 -0.162277,0.0988 -0.366888,0.14817 -0.613831,0.14817 -0.232833,0 -0.433915,-0.0494 -0.603248,-0.14817 -0.162277,-0.10583 -0.29986,-0.23989 -0.412749,-0.40216 -0.105833,-0.16933 -0.183444,-0.35983 -0.232833,-0.5715 -0.04939,-0.21167 -0.07408,-0.42333 -0.07408,-0.635 0,-0.22578 0.02117,-0.44097 0.0635,-0.64558 0.04939,-0.21167 0.12347,-0.39864 0.222249,-0.56092 0.105833,-0.16227 0.243416,-0.2928 0.412749,-0.39158 0.169333,-0.0988 0.377471,-0.14817 0.624415,-0.14817 0.246943,0 0.451554,0.0494 0.613831,0.14817 0.162277,0.0988 0.292805,0.22931 0.391582,0.39158 0.105833,0.15523 0.179916,0.33867 0.222249,0.55033 0.04233,0.20461 0.0635,0.41981 0.0635,0.64559 z m 0.02117,2.05316 v 0.69849 h 1.428745 v -7.55647 l -1.502828,-7e-5 v 2.75173 h -0.02117 c -0.169333,-0.26811 -0.402165,-0.4692 -0.698498,-0.60325 -0.289277,-0.14111 -0.596192,-0.21167 -0.920747,-0.21167 -0.402165,0 -0.754942,0.0811 -1.05833,0.24342 -0.303388,0.15522 -0.557387,0.36336 -0.761997,0.62441 -0.197555,0.26105 -0.349249,0.56444 -0.455082,0.91017 -0.09878,0.33866 -0.148166,0.69144 -0.148166,1.05833 0,0.38099 0.04939,0.74788 0.148166,1.10066 0.105833,0.35277 0.257527,0.66674 0.455082,0.94191 0.20461,0.26811 0.462137,0.48331 0.772581,0.64558 0.310443,0.15523 0.670275,0.23284 1.079496,0.23284 0.359832,0 0.680859,-0.0635 0.96308,-0.1905 0.289277,-0.13406 0.52211,-0.34925 0.698498,-0.64558 z"
           style="font-style:normal;font-variant:normal;font-weight:bold;font-stretch:normal;font-family:'Helvetica Neue';-inkscape-font-specification:'Helvetica Neue Bold';stroke-width:0.264583;fill:#ffffff;fill-opacity:1"
           id="path782"
           sodipodi:nodetypes="ssccsccssccsssccssccccccccscccscccsccc" />
        <path
           d="m 43.922357,116.74133 h -2.444742 q 0.01058,-0.15875 0.0635,-0.35983 0.0635,-0.20109 0.201082,-0.381 0.148166,-0.17992 0.380999,-0.29634 0.243416,-0.127 0.603248,-0.127 0.550332,0 0.814914,0.29634 0.275166,0.29633 0.380999,0.86783 z m -2.444742,0.95249 h 3.947571 q 0.04233,-0.63499 -0.105833,-1.21707 -0.148167,-0.58209 -0.486832,-1.03717 -0.328083,-0.45508 -0.846664,-0.71966 -0.518582,-0.27517 -1.21708,-0.27517 -0.624414,0 -1.142996,0.22225 -0.507998,0.22225 -0.878414,0.61383 -0.370415,0.381 -0.571498,0.91017 -0.201083,0.52916 -0.201083,1.14299 0,0.635 0.1905,1.16417 0.201082,0.52916 0.560914,0.91016 0.359833,0.381 0.878414,0.59266 0.518582,0.20109 1.164163,0.20109 0.931331,0 1.587495,-0.42334 0.656165,-0.42333 0.973664,-1.40757 h -1.322913 q -0.07408,0.25399 -0.402165,0.48683 -0.328082,0.22225 -0.783164,0.22225 -0.634998,0 -0.973664,-0.32809 -0.338665,-0.32808 -0.370415,-1.05833 z"
           style="font-style:normal;font-variant:normal;font-weight:bold;font-stretch:normal;font-family:'Helvetica Neue';-inkscape-font-specification:'Helvetica Neue Bold';stroke-width:0.264583;fill:#ffffff;fill-opacity:1"
           id="path784" />
        <path
           d="m 46.316498,114.59292 v 5.47156 h 1.502829 v -2.86807 q 0,-0.83608 0.275165,-1.19591 0.275166,-0.37042 0.888998,-0.37042 0.539748,0 0.751414,0.33867 0.211666,0.32808 0.211666,1.00541 v 3.09032 h 1.502828 v -3.36549 q 0,-0.50799 -0.09525,-0.92074 -0.08467,-0.42333 -0.306916,-0.70908 -0.222249,-0.29634 -0.613831,-0.45509 -0.380999,-0.16933 -0.984247,-0.16933 -0.476249,0 -0.931331,0.22225 -0.455081,0.21167 -0.740831,0.68792 h -0.03175 v -0.762 z"
           style="font-style:normal;font-variant:normal;font-weight:bold;font-stretch:normal;font-family:'Helvetica Neue';-inkscape-font-specification:'Helvetica Neue Bold';stroke-width:0.264583;fill:#ffffff;fill-opacity:1"
           id="path786" />
        <path
           d="m 54.505326,114.59283 v -1.6402 h -1.502844 l 1.5e-5,1.6402 h -0.910164 v 1.00541 h 0.910164 v 3.22791 c 0,0.27517 0.04586,0.49742 0.137583,0.66675 0.09172,0.16933 0.215194,0.29985 0.370415,0.39158 0.162277,0.0917 0.345721,0.15169 0.550332,0.17991 0.211666,0.0353 0.433915,0.0529 0.666748,0.0529 0.148166,0 0.29986,-0.004 0.455082,-0.0106 0.155221,-0.007 0.296332,-0.0212 0.423332,-0.0423 v -1.16416 c -0.07055,0.0141 -0.144639,0.0247 -0.22225,0.0318 -0.07761,0.007 -0.158749,0.0106 -0.243416,0.0106 -0.253999,0 -0.423331,-0.0423 -0.507998,-0.127 -0.08467,-0.0847 -0.126999,-0.254 -0.126999,-0.50799 v -2.70933 h 1.100663 v -1.00541 z"
           style="font-style:normal;font-variant:normal;font-weight:bold;font-stretch:normal;font-family:'Helvetica Neue';-inkscape-font-specification:'Helvetica Neue Bold';stroke-width:0.264583;fill:#ffffff;fill-opacity:1"
           id="path788"
           sodipodi:nodetypes="cccccccssccssccsssscccc" />
        <path
           d="m 56.363356,114.59292 v 5.47156 h 1.502829 v -5.47156 z"
           style="font-style:normal;font-variant:normal;font-weight:bold;font-stretch:normal;font-family:'Helvetica Neue';-inkscape-font-specification:'Helvetica Neue Bold';stroke-width:0.264583;fill:#ffffff;fill-opacity:1"
           id="path790"
           sodipodi:nodetypes="ccccc" />
        <path
           d="m 59.377612,115.59833 v 4.46615 h 1.502828 v -4.46615 h 1.037164 v -1.00541 H 60.88044 v -0.32808 q 0,-0.33867 0.127,-0.47625 0.137583,-0.14817 0.444498,-0.14817 0.285749,0 0.550332,0.0317 v -1.12183 q -0.190499,-0.0106 -0.391582,-0.0212 -0.201083,-0.0212 -0.402166,-0.0212 -0.920747,0 -1.375828,0.46566 -0.455082,0.46567 -0.455082,1.19592 v 0.42333 h -0.899581 v 1.00541 z"
           style="font-style:normal;font-variant:normal;font-weight:bold;font-stretch:normal;font-family:'Helvetica Neue';-inkscape-font-specification:'Helvetica Neue Bold';stroke-width:0.264583;fill:#ffffff;fill-opacity:1"
           id="path792" />
        <path
           d="m 65.282927,120.74181 2.285993,-6.14889 h -1.555745 l -1.195913,3.74649 h -0.02117 l -1.238246,-3.74649 h -1.598078 l 1.915577,5.1329 q 0.0635,0.15875 0.0635,0.33866 0,0.24342 -0.148166,0.4445 -0.137583,0.20108 -0.433915,0.23283 -0.22225,0.0106 -0.444499,-0.0106 -0.222249,-0.0212 -0.433915,-0.0423 v 1.23824 q 0.232832,0.0212 0.455082,0.0318 0.232832,0.0212 0.465665,0.0212 0.772581,0 1.206496,-0.28575 0.433915,-0.28575 0.677331,-0.9525 z"
           style="font-style:normal;font-variant:normal;font-weight:bold;font-stretch:normal;font-family:'Helvetica Neue';-inkscape-font-specification:'Helvetica Neue Bold';stroke-width:0.264583;fill:#ffffff;fill-opacity:1"
           id="path794" />
      </g>
    </g>
  </g>
</svg>
